<?xml version="1.0" standalone="no"?>
<!DOCTYPE svg PUBLIC "-//W3C//DTD SVG 20010904//EN"
 "http://www.w3.org/TR/2001/REC-SVG-20010904/DTD/svg10.dtd">
<svg version="1.0" xmlns="http://www.w3.org/2000/svg"
 width="577.000000pt" height="433.000000pt" viewBox="0 0 577.000000 433.000000"
 preserveAspectRatio="xMidYMid meet">

<g transform="translate(0.000000,433.000000) scale(0.100000,-0.100000)"
fill="#000000" stroke="none">
<path d="M1895 2625 c-48 -17 -110 -83 -119 -126 -3 -17 -6 -150 -6 -295 l0
-264 75 0 75 0 0 125 0 125 59 0 c66 0 71 5 71 75 0 70 -5 75 -70 75 -66 0
-68 4 -61 88 4 49 23 62 92 62 l39 0 0 75 0 75 -57 0 c-32 -1 -76 -7 -98 -15z"/>
<path d="M2130 2290 l0 -350 140 0 140 0 0 28 c-1 41 -59 101 -101 105 l-34 3
-3 282 -2 282 -70 0 -70 0 0 -350z"/>
<path d="M2573 2502 c-74 -26 -118 -60 -158 -117 -80 -118 -70 -256 27 -362
119 -128 302 -132 430 -9 142 136 103 378 -76 466 -81 40 -153 47 -223 22z
m176 -155 c35 -21 71 -84 71 -127 0 -14 -9 -43 -19 -66 -54 -118 -230 -116
-283 3 -26 59 -17 114 26 160 57 62 133 73 205 30z"/>
<path d="M890 2501 l-45 -6 70 -24 c113 -38 214 -91 208 -108 -4 -10 -17 -13
-47 -9 -64 8 -96 17 -90 27 3 5 -2 9 -11 9 -9 0 -14 -4 -11 -9 3 -4 -33 -11
-81 -14 -50 -4 -89 -11 -94 -18 -5 -8 -9 -4 -12 12 -4 24 -4 23 -6 -2 -2 -38
14 -45 109 -54 47 -3 92 -8 101 -9 23 -3 118 -59 166 -97 184 -149 238 -180
319 -187 86 -7 133 39 119 115 -8 43 -38 62 -124 78 -77 15 -127 38 -185 84
-21 17 -43 28 -49 24 -6 -4 -8 0 -4 10 4 11 -14 34 -61 78 -96 88 -166 114
-272 100z m260 -155 c0 -2 -7 -7 -16 -10 -8 -3 -12 -2 -9 4 6 10 25 14 25 6z"/>
<path d="M2955 2453 c7 -26 24 -84 38 -128 37 -119 63 -211 88 -302 l22 -83
68 0 68 0 46 148 c26 81 51 151 55 156 5 5 31 -61 57 -145 l49 -154 66 -3 65
-3 16 53 c24 79 85 289 117 406 l28 102 -72 0 -73 0 -38 -137 c-21 -76 -41
-144 -44 -151 -4 -7 -15 12 -24 45 -10 32 -30 99 -46 148 l-28 90 -67 0 -67 0
-47 -142 c-25 -79 -50 -143 -54 -143 -5 0 -11 12 -14 28 -3 15 -20 79 -38 142
l-31 115 -77 3 -76 3 13 -48z"/>
<path d="M4572 2433 l3 -68 103 -3 c68 -2 102 -6 102 -14 0 -6 -24 -43 -54
-82 -136 -181 -156 -215 -156 -273 l0 -53 240 0 240 0 0 64 c0 50 -4 65 -16
70 -10 4 -73 6 -141 5 -69 0 -126 1 -128 3 -2 2 13 26 34 53 143 188 241 328
241 345 0 19 -7 20 -235 20 l-236 0 3 -67z"/>
<path d="M4471 2443 c-9 -10 -28 -14 -61 -11 l-48 3 -6 -74 c-3 -41 -6 -152
-6 -248 l0 -173 75 0 75 0 -1 163 c-1 89 -4 205 -8 258 -5 83 -8 95 -20 82z"/>
<path d="M4090 2424 c0 -6 -9 -23 -21 -38 -18 -23 -27 -26 -85 -26 -61 0 -64
1 -64 24 0 14 -4 28 -10 31 -5 3 -10 -1 -10 -9 0 -13 -3 -13 -27 0 -25 13 -29
12 -44 -5 -15 -18 -16 -18 -32 2 -16 20 -17 15 -17 -108 0 -72 -3 -181 -7
-242 l-6 -113 190 0 c179 0 192 1 234 23 120 64 142 226 43 322 l-43 43 18 38
c30 61 24 69 -52 69 -43 0 -67 -4 -67 -11z m40 -224 c25 -25 26 -61 1 -91 -17
-22 -29 -24 -115 -27 l-96 -4 0 71 0 71 95 0 c82 0 98 -3 115 -20z"/>
<path d="M1330 2390 c-8 -5 -19 -6 -25 -4 -5 3 10 -13 34 -35 51 -48 128 -75
193 -67 24 3 46 5 51 5 7 1 10 94 3 102 -2 2 -53 2 -113 -1 -59 -3 -113 -2
-118 2 -6 4 -17 3 -25 -2z"/>
<path d="M751 2374 c0 -11 3 -14 6 -6 3 7 2 16 -1 19 -3 4 -6 -2 -5 -13z"/>
<path d="M1050 2380 c0 -6 7 -10 15 -10 8 0 15 2 15 4 0 2 -7 6 -15 10 -8 3
-15 1 -15 -4z"/>
<path d="M1051 2096 c-7 -8 -20 -12 -30 -9 -10 3 -22 0 -25 -6 -4 -6 -13 -11
-19 -11 -8 0 -8 3 1 9 8 5 0 7 -21 7 -50 -1 -37 -28 25 -50 41 -14 76 -42 174
-137 131 -128 190 -165 281 -175 101 -13 169 52 144 136 -13 45 -52 67 -133
75 -66 7 -164 53 -256 120 -35 26 -70 44 -77 41 -7 -2 -18 1 -24 7 -8 8 -11 8
-11 -1 0 -7 -5 -12 -11 -12 -5 0 -7 5 -4 10 9 15 -1 12 -14 -4z"/>
<path d="M860 2069 c-20 -5 -16 -6 18 -7 23 0 42 2 42 3 0 8 -38 10 -60 4z"/>
<path d="M843 1882 l-123 -3 0 -59 c0 -52 4 -64 31 -95 17 -19 47 -40 67 -45
23 -7 128 -10 277 -8 l240 3 -59 29 c-35 17 -92 60 -137 103 -87 84 -74 80
-296 75z"/>
<path d="M1805 1798 c-48 -28 -59 -84 -25 -128 27 -35 103 -36 131 -1 34 42
24 103 -22 126 -33 18 -57 18 -84 3z m75 -18 c4 0 13 -13 20 -30 10 -25 10
-34 -4 -54 -21 -33 -52 -41 -81 -22 -30 19 -39 49 -25 76 13 23 48 41 68 34 8
-2 17 -4 22 -4z"/>
<path d="M2398 1753 l-3 -58 -35 53 c-49 73 -60 69 -60 -23 0 -87 18 -102 22
-18 l3 57 35 -57 c51 -82 66 -77 62 23 -4 92 -20 107 -24 23z"/>
<path d="M2464 1801 c-2 -2 -4 -37 -4 -78 l0 -73 50 0 c28 0 50 5 50 10 0 6
-16 10 -35 10 -31 0 -35 3 -35 25 0 21 5 25 30 25 17 0 30 5 30 10 0 6 -13 10
-30 10 -23 0 -30 4 -30 20 0 16 7 20 35 20 19 0 35 4 35 9 0 9 -88 20 -96 12z"/>
<path d="M2674 1802 c-16 -10 -25 -45 -16 -58 4 -7 24 -19 45 -27 52 -22 51
-50 -3 -46 -47 4 -54 -12 -11 -25 23 -7 37 -5 56 8 44 29 29 69 -32 85 -18 5
-28 14 -28 27 0 16 6 19 40 17 37 -2 39 -1 21 12 -21 16 -54 19 -72 7z"/>
<path d="M2823 1800 c-45 -18 -58 -90 -24 -131 15 -19 29 -24 65 -24 25 0 51
6 57 12 19 19 4 27 -28 16 -76 -27 -124 60 -57 103 19 13 30 14 54 6 34 -12
51 2 21 17 -23 13 -58 13 -88 1z"/>
<path d="M3067 1803 c-4 -3 -7 -19 -7 -35 0 -26 -3 -28 -40 -28 -38 0 -40 2
-40 30 0 20 -5 30 -15 30 -12 0 -15 -15 -15 -75 0 -60 3 -75 15 -75 10 0 15
10 15 30 0 28 2 30 40 30 38 0 40 -2 40 -30 0 -18 5 -30 13 -30 10 0 12 18 9
78 -4 82 -5 86 -15 75z"/>
<path d="M3127 1803 c-4 -3 -7 -39 -7 -80 l0 -73 51 0 c31 0 48 4 44 10 -3 6
-19 10 -36 10 -24 0 -29 4 -29 25 0 21 5 25 30 25 17 0 30 5 30 10 0 6 -13 10
-30 10 -23 0 -30 4 -30 20 0 16 7 20 35 20 36 0 47 13 19 24 -21 8 -69 8 -77
-1z"/>
<path d="M3268 1802 c-15 -3 -18 -15 -18 -78 l0 -74 48 0 c61 0 92 25 92 75 0
38 -28 74 -57 76 -10 0 -25 2 -33 3 -8 1 -23 1 -32 -2z m82 -37 c7 -8 13 -26
13 -40 0 -34 -20 -55 -54 -55 -33 0 -44 25 -34 76 5 29 10 34 34 34 16 0 34
-7 41 -15z"/>
<path d="M3549 1773 c-3 -90 -26 -121 -76 -102 -20 7 -23 15 -23 69 0 47 -3
60 -15 60 -12 0 -15 -13 -15 -55 0 -46 4 -60 25 -80 26 -27 54 -31 88 -14 32
17 37 28 37 91 0 64 -19 92 -21 31z"/>
<path d="M4010 1797 c-51 -26 -61 -95 -18 -134 46 -42 148 -12 148 44 0 20 -5
23 -40 23 -22 0 -40 -4 -40 -10 0 -5 12 -10 26 -10 34 0 29 -30 -7 -42 -59
-20 -107 34 -79 87 17 31 53 39 90 20 27 -14 30 -14 30 0 0 16 -38 35 -68 35
-9 0 -28 -6 -42 -13z"/>
<path d="M4246 1791 c-26 -29 -12 -58 35 -72 28 -9 39 -18 39 -31 0 -17 -6
-19 -40 -17 -47 4 -54 -12 -11 -25 36 -10 81 13 81 43 0 23 -28 48 -60 53 -17
2 -25 9 -25 23 0 17 6 20 38 17 37 -3 51 11 21 22 -29 11 -61 6 -78 -13z"/>
<path d="M4447 1779 l-25 -32 -17 27 c-10 14 -24 26 -32 26 -10 0 -7 -11 12
-43 14 -24 25 -58 25 -75 0 -22 5 -32 15 -32 10 0 15 11 15 35 0 20 11 52 25
75 30 48 16 62 -18 19z"/>
<path d="M4528 1799 c-21 -12 -24 -52 -5 -66 6 -6 26 -15 42 -20 46 -15 39
-38 -12 -37 -28 0 -43 -4 -43 -12 0 -18 52 -27 84 -14 23 8 27 15 24 42 -2 26
-9 35 -33 43 -49 16 -58 25 -44 41 8 10 22 13 41 9 30 -7 40 8 12 19 -22 9
-46 7 -66 -5z"/>
<path d="M4632 1802 c-18 -6 -4 -22 19 -22 17 0 19 -7 19 -65 0 -51 3 -65 15
-65 12 0 15 14 15 65 0 58 2 65 19 65 35 0 34 20 -1 21 -18 0 -42 2 -53 3 -12
1 -26 1 -33 -2z"/>
<path d="M4770 1731 c0 -44 4 -82 8 -85 13 -8 92 6 86 15 -3 5 -21 9 -40 9
-31 0 -35 3 -32 23 2 17 11 23 36 25 41 4 42 20 0 24 -50 5 -51 36 -1 40 54 4
47 22 -9 26 l-48 3 0 -80z"/>
<path d="M5016 1788 c-7 -13 -20 -36 -29 -52 l-14 -30 -21 47 c-12 27 -28 47
-36 47 -13 0 -16 -14 -16 -80 0 -91 17 -109 22 -22 l3 57 19 -42 c10 -24 22
-43 27 -43 6 0 20 17 32 38 l22 37 3 -52 c5 -86 22 -60 22 32 0 87 -8 103 -34
63z"/>
<path d="M1960 1724 c0 -53 3 -75 12 -72 6 2 13 24 15 48 3 25 6 46 7 48 2 1
18 -20 36 -48 46 -72 60 -67 60 25 0 59 -3 75 -14 75 -11 0 -16 -14 -18 -47
l-3 -48 -33 48 c-49 70 -62 63 -62 -29z"/>
<path d="M2120 1725 l0 -75 45 0 c25 0 45 5 45 10 0 6 -13 10 -30 10 l-30 0 0
65 c0 51 -3 65 -15 65 -12 0 -15 -15 -15 -75z"/>
<path d="M2230 1725 c0 -60 3 -75 15 -75 12 0 15 15 15 75 0 60 -3 75 -15 75
-12 0 -15 -15 -15 -75z"/>
<path d="M3610 1725 l0 -75 50 0 c28 0 50 5 50 10 0 6 -16 10 -35 10 l-35 0 0
65 c0 51 -3 65 -15 65 -12 0 -15 -15 -15 -75z"/>
<path d="M3740 1725 c0 -60 3 -75 15 -75 12 0 15 15 15 75 0 60 -3 75 -15 75
-12 0 -15 -15 -15 -75z"/>
<path d="M3810 1725 c0 -88 18 -102 22 -18 l3 58 35 -55 c58 -92 70 -90 70 16
0 58 -3 74 -14 74 -11 0 -16 -15 -18 -52 l-3 -51 -35 51 c-49 73 -60 68 -60
-23z"/>
</g>
</svg>
